<svg width="14" height="9" viewBox="0 0 14 9" fill="none" xmlns="http://www.w3.org/2000/svg">
<path d="M0.247682 1.95256L6.12003 8.65877C6.48386 9.07427 7.11564 9.11615 7.53114 8.75232C7.94664 8.38848 7.98853 7.7567 7.62469 7.3412L1.75235 0.634987C1.38851 0.219486 0.75673 0.177604 0.341229 0.541441C-0.0742723 0.905277 -0.116155 1.53705 0.247682 1.95256Z" fill="#05ACBC"/>
<path d="M12.1232 0.627223L6.1269 7.33344C5.75877 7.74514 5.7941 8.37732 6.20581 8.74545C6.61752 9.11357 7.24969 9.07824 7.61782 8.66654L13.6141 1.96032C13.9823 1.54861 13.9469 0.916436 13.5352 0.548311C13.1235 0.180186 12.4913 0.215516 12.1232 0.627223Z" fill="#05ACBC"/>
</svg>
